<?xml version="1.0" encoding="UTF-8" standalone="no"?>
<svg xmlns:dc="http://purl.org/dc/elements/1.1/" version="1.1" xmlns:xl="http://www.w3.org/1999/xlink" xmlns="http://www.w3.org/2000/svg" viewBox="-341.7791 102 1179 2366" width="1179" height="2366">
  <defs>
    <filter id="Shadow" filterUnits="userSpaceOnUse" x="-459.6791" y="-134.6">
      <feGaussianBlur in="SourceAlpha" result="blur" stdDeviation="1.3030978"/>
      <feOffset in="blur" result="offset" dx="0" dy="2"/>
      <feFlood flood-color="black" flood-opacity=".2" result="flood"/>
      <feComposite in="flood" in2="offset" operator="in" result="color"/>
      <feMerge>
        <feMergeNode in="color"/>
        <feMergeNode in="SourceGraphic"/>
      </feMerge>
    </filter>
  </defs>
  <g id="Canvas_1" stroke-opacity="1" stroke="none" stroke-dasharray="none" fill="none" fill-opacity="1">
    <title>Canvas 1</title>
    <g id="Canvas_1_Layer_1">
      <title>Layer 1</title>
      <g id="Graphic_21" filter="url(#Shadow)">
        <path d="M -314.7791 118 L 810.2209 118 C 815.1915 118 819.2209 122.02944 819.2209 127 L 819.2209 2439 C 819.2209 2443.9706 815.1915 2448 810.2209 2448 L -314.7791 2448 C -319.74966 2448 -323.7791 2443.9706 -323.7791 2439 L -323.7791 127 C -323.7791 122.02944 -319.74966 118 -314.7791 118 Z" fill="#e8f0fd"/>
      </g>
      <g id="Group_22">
        <g id="Group_5">
          <g id="Graphic_2" filter="url(#Shadow)">
            <path d="M -196.85 239 L -42.15 239 C -23.8512 239 -9 288.504 -9 349.5 C -9 410.496 -23.8512 460 -42.15 460 L -196.85 460 C -215.1488 460 -230 410.496 -230 349.5 C -230 288.504 -215.1488 239 -196.85 239 Z" fill="#48f"/>
            <clipPath id="clip_path">
              <path d="M 33.15 0 L 187.85 0 C 206.1488 0 221 49.504 221 110.5 C 221 171.496 206.1488 221 187.85 221 L 33.15 221 C 14.8512 221 0 171.496 0 110.5 C 0 49.504 14.8512 0 33.15 0 Z" fill="#48f"/>
            </clipPath>
            <text clip-path="url(#clip_path)" transform="translate(-230 239)" fill="#e8f0fd">
              <tspan font-family="Courier New" font-weight="bold" font-size="36" fill="#e8f0fd" x="45.689453" y="120" xml:space="preserve">Render</tspan>
            </text>
          </g>
          <g id="Graphic_3">
            <text transform="translate(57.934 336)" fill="black">
              <tspan font-family="Courier New" font-size="24" fill="black" x="0" y="20" xml:space="preserve">Pure function. Presentation. Generates HTML.</tspan>
            </text>
          </g>
        </g>
        <g id="Graphic_4" filter="url(#Shadow)">
          <path d="M -59.5 522.875 L -119.5 642.875 L -179.5 522.875 Z" fill="#4588ff"/>
        </g>
        <g id="Group_6">
          <g id="Graphic_8" filter="url(#Shadow)">
            <path d="M -196.85 705.75 L -42.15 705.75 C -23.8512 705.75 -9 755.254 -9 816.25 C -9 877.246 -23.8512 926.75 -42.15 926.75 L -196.85 926.75 C -215.1488 926.75 -230 877.246 -230 816.25 C -230 755.254 -215.1488 705.75 -196.85 705.75 Z" fill="#4588ff"/>
            <clipPath id="clip_path_2">
              <path d="M 33.15 0 L 187.85 0 C 206.1488 0 221 49.504 221 110.5 C 221 171.496 206.1488 221 187.85 221 L 33.15 221 C 14.8512 221 0 171.496 0 110.5 C 0 49.504 14.8512 0 33.15 0 Z" fill="#4588ff"/>
            </clipPath>
            <text clip-path="url(#clip_path_2)" transform="translate(-230 705.75)" fill="#e7effd">
              <tspan font-family="Courier New" font-weight="bold" font-size="36" fill="#e7effd" x="67.29297" y="120" xml:space="preserve">Load</tspan>
            </text>
          </g>
          <g id="Graphic_7">
            <text transform="translate(129.94572 802.75)" fill="black">
              <tspan font-family="Courier New" font-size="24" fill="black" x="7.201172" y="20" xml:space="preserve">Optional. Async. Fetches Data and </tspan>
              <tspan font-family="Courier New" font-size="24" fill="black" x="43.20703" y="47" xml:space="preserve">performs network operations.</tspan>
            </text>
          </g>
        </g>
        <g id="Graphic_12" filter="url(#Shadow)">
          <path d="M -59.5 989.625 L -119.5 1109.625 L -179.5 989.625 Z" fill="#4588ff"/>
        </g>
        <g id="Group_9">
          <g id="Graphic_11" filter="url(#Shadow)">
            <path d="M -196.85 1172.5 L -42.15 1172.5 C -23.8512 1172.5 -9 1222.004 -9 1283 C -9 1343.996 -23.8512 1393.5 -42.15 1393.5 L -196.85 1393.5 C -215.1488 1393.5 -230 1343.996 -230 1283 C -230 1222.004 -215.1488 1172.5 -196.85 1172.5 Z" fill="#4588ff"/>
            <clipPath id="clip_path_3">
              <path d="M 33.15 0 L 187.85 0 C 206.1488 0 221 49.504 221 110.5 C 221 171.496 206.1488 221 187.85 221 L 33.15 221 C 14.8512 221 0 171.496 0 110.5 C 0 49.504 14.8512 0 33.15 0 Z" fill="#4588ff"/>
            </clipPath>
            <text clip-path="url(#clip_path_3)" transform="translate(-230 1172.5)" fill="#e7effd">
              <tspan font-family="Courier New" font-weight="bold" font-size="36" fill="#e7effd" x="67.29297" y="120" xml:space="preserve">Bind</tspan>
            </text>
          </g>
          <g id="Graphic_10">
            <text transform="translate(29.129312 1269.5)" fill="black">
              <tspan font-family="Courier New" font-size="24" fill="black" x="115.21875" y="20" xml:space="preserve">Optional. Logic and Interaction.</tspan>
              <tspan font-family="Courier New" font-size="24" fill="black" x="0" y="47" xml:space="preserve">Has direct access to the containing DOM element.</tspan>
            </text>
          </g>
        </g>
        <g id="Graphic_16" filter="url(#Shadow)">
          <path d="M -59.5 1456.375 L -119.5 1576.375 L -179.5 1456.375 Z" fill="#4588ff"/>
        </g>
        <g id="Group_13">
          <g id="Graphic_15" filter="url(#Shadow)">
            <path d="M -230 1647.25 L -222 1639.25 L -17 1639.25 L -9 1647.25 L -9 1852.25 L -17 1860.25 L -222 1860.25 L -230 1852.25 Z" fill="#4588ff"/>
            <clipPath id="clip_path_4">
              <path d="M 0 8 L 8 0 L 213 0 L 221 8 L 221 213 L 213 221 L 8 221 L 0 213 Z" fill="#4588ff"/>
            </clipPath>
            <text clip-path="url(#clip_path_4)" transform="translate(-230 1639.25)" fill="#e7effd">
              <tspan font-family="Courier New" font-weight="bold" font-size="36" fill="#e7effd" x="45.689453" y="120" xml:space="preserve">Active</tspan>
            </text>
          </g>
          <g id="Graphic_14">
            <text transform="translate(57.934 1736.25)" fill="black">
              <tspan font-family="Courier New" font-size="24" fill="black" x="0" y="20" xml:space="preserve">Component is loaded and listening to events.</tspan>
            </text>
          </g>
        </g>
        <g id="Graphic_20" filter="url(#Shadow)">
          <path d="M -59.5 1923.125 L -119.5 2043.125 L -179.5 1923.125 Z" fill="#4588ff"/>
        </g>
        <g id="Group_17">
          <g id="Graphic_19" filter="url(#Shadow)">
            <path d="M -196.85 2106 L -42.15 2106 C -23.8512 2106 -9 2155.504 -9 2216.5 C -9 2277.496 -23.8512 2327 -42.15 2327 L -196.85 2327 C -215.1488 2327 -230 2277.496 -230 2216.5 C -230 2155.504 -215.1488 2106 -196.85 2106 Z" fill="#4588ff"/>
            <clipPath id="clip_path_5">
              <path d="M 33.15 0 L 187.85 0 C 206.1488 0 221 49.504 221 110.5 C 221 171.496 206.1488 221 187.85 221 L 33.15 221 C 14.8512 221 0 171.496 0 110.5 C 0 49.504 14.8512 0 33.15 0 Z" fill="#4588ff"/>
            </clipPath>
            <text clip-path="url(#clip_path_5)" transform="translate(-230 2106)" fill="#e7effd">
              <tspan font-family="Courier New" font-weight="bold" font-size="36" fill="#e7effd" x="34.887695" y="120" xml:space="preserve">Release</tspan>
            </text>
          </g>
          <g id="Graphic_18">
            <text transform="translate(151.54923 2203)" fill="black">
              <tspan font-family="Courier New" font-size="24" fill="black" x="86.41406" y="20" xml:space="preserve">Optional. Clean up.</tspan>
              <tspan font-family="Courier New" font-size="24" fill="black" x="7.201172" y="47" xml:space="preserve">Component is removed from DOM. </tspan>
              <tspan font-family="Courier New" font-size="24" fill="black" x="64.81055" y="74" xml:space="preserve">Remove event handlers.</tspan>
            </text>
          </g>
        </g>
      </g>
    </g>
  </g>
</svg>
