<?xml version="1.0" encoding="UTF-8" standalone="no"?>
<svg xmlns:dc="http://purl.org/dc/elements/1.1/" version="1.1" xmlns:xl="http://www.w3.org/1999/xlink" xmlns="http://www.w3.org/2000/svg" viewBox="-166 14 1682 1885" width="1682" height="1885">
  <defs>
    <filter id="Shadow" filterUnits="userSpaceOnUse" x="-334.2" y="-174.5">
      <feGaussianBlur in="SourceAlpha" result="blur" stdDeviation="1.3030978"/>
      <feOffset in="blur" result="offset" dx="0" dy="2"/>
      <feFlood flood-color="black" flood-opacity=".2" result="flood"/>
      <feComposite in="flood" in2="offset" operator="in" result="color"/>
      <feMerge>
        <feMergeNode in="color"/>
        <feMergeNode in="SourceGraphic"/>
      </feMerge>
    </filter>
  </defs>
  <g id="Canvas_1" stroke-opacity="1" stroke="none" stroke-dasharray="none" fill="none" fill-opacity="1">
    <title>Canvas 1</title>
    <g id="Canvas_1_Layer_1">
      <title>Layer 1</title>
      <g id="Graphic_18" filter="url(#Shadow)">
        <path d="M -139 30 L 1489 30 C 1493.9706 30 1498 34.029437 1498 39 L 1498 1870 C 1498 1874.9706 1493.9706 1879 1489 1879 L -139 1879 C -143.97056 1879 -148 1874.9706 -148 1870 L -148 39 C -148 34.029437 -143.97056 30 -139 30 Z" fill="#e7effd"/>
      </g>
      <g id="Group_19">
        <g id="Group_11">
          <g id="Group_10">
            <g id="Graphic_7" filter="url(#Shadow)">
              <path d="M 678.8072 1328.2783 L 851.5605 1328.2783 C 937.9372 1328.2783 1024.3139 1285.09 1024.3139 1155.5249 C 1024.3139 1025.9599 937.9372 982.7715 851.5605 982.7715 L 678.8072 982.7715 Z" fill="#3d78e2"/>
              <text transform="translate(683.8072 1100.0249)" fill="#e7effd">
                <tspan font-family="Courier New" font-weight="bold" font-size="32" fill="#e7effd" x="71.73775" y="27" xml:space="preserve">Structured</tspan>
                <tspan font-family="Courier New" font-weight="bold" font-size="32" fill="#e7effd" x="81.33931" y="64" xml:space="preserve">Queryable</tspan>
                <tspan font-family="Courier New" font-weight="bold" font-size="32" fill="#e7effd" x="100.54243" y="101" xml:space="preserve">Content</tspan>
              </text>
            </g>
            <g id="Graphic_6" filter="url(#Shadow)">
              <path d="M 678.8072 930.2285 L 851.5605 930.2285 C 937.9372 930.2285 1024.3139 887.0401 1024.3139 757.4751 C 1024.3139 627.91005 937.9372 584.7217 851.5605 584.7217 L 678.8072 584.7217 Z" fill="#3d78e2"/>
              <text transform="translate(683.8072 720.4751)" fill="#e7effd">
                <tspan font-family="Courier New" font-weight="bold" font-size="32" fill="#e7effd" x="110.144" y="27" xml:space="preserve">Static</tspan>
                <tspan font-family="Courier New" font-weight="bold" font-size="32" fill="#e7effd" x="100.54243" y="64" xml:space="preserve">Content</tspan>
              </text>
            </g>
            <g id="Graphic_5" filter="url(#Shadow)">
              <path d="M 629.8072 532.1786 L 802.5605 532.1786 C 888.9372 532.1786 975.3139 488.9903 975.3139 359.42525 C 975.3139 229.86022 888.9372 186.67188 802.5605 186.67188 L 629.8072 186.67188 Z" fill="#3d78e2"/>
              <text transform="translate(634.8072 322.42525)" fill="#e7effd">
                <tspan font-family="Courier New" font-weight="bold" font-size="32" fill="#e7effd" x="62.136185" y="27" xml:space="preserve">Interactive</tspan>
                <tspan font-family="Courier New" font-weight="bold" font-size="32" fill="#e7effd" x="100.54243" y="64" xml:space="preserve">Content</tspan>
              </text>
            </g>
            <g id="Graphic_8" filter="url(#Shadow)">
              <path d="M 629.8072 1726.3281 L 802.5605 1726.3281 C 888.9372 1726.3281 975.3139 1683.1398 975.3139 1553.5748 C 975.3139 1424.0097 888.9372 1380.8214 802.5605 1380.8214 L 629.8072 1380.8214 Z" fill="#3d78e2"/>
              <text transform="translate(634.8072 1516.5748)" fill="#e7effd">
                <tspan font-family="Courier New" font-weight="bold" font-size="32" fill="#e7effd" x="52.53462" y="27" xml:space="preserve">Programmable</tspan>
                <tspan font-family="Courier New" font-weight="bold" font-size="32" fill="#e7effd" x="100.54243" y="64" xml:space="preserve">Content</tspan>
              </text>
            </g>
          </g>
          <g id="Graphic_2" filter="url(#Shadow)">
            <path d="M 65.08667 89.42969 L 584.1722 89.42969 C 645.5726 89.42969 695.4048 477.8772 695.4048 956.5 C 695.4048 1435.1228 645.5726 1823.5703 584.1722 1823.5703 L 65.08667 1823.5703 C 3.686262 1823.5703 -46.14595 1435.1228 -46.14595 956.5 C -46.14595 477.8772 3.686262 89.42969 65.08667 89.42969 Z" fill="#4588ff"/>
            <text transform="translate(33.009128 938)" fill="#e7effd">
              <tspan font-family="Courier New" font-weight="bold" font-size="32" fill="#e7effd" x="186.00311" y="27" xml:space="preserve">&lt;Website /&gt;</tspan>
            </text>
          </g>
        </g>
        <g id="Group_17">
          <g id="Graphic_13" filter="url(#Shadow)">
            <path d="M 1396.146 481.3125 L 1132.146 349.3125 L 1396.146 217.3125 Z" fill="#4588ff" fill-opacity=".44834184"/>
            <clipPath id="clip_path">
              <path d="M 264 264 L 0 132 L 264 -2842171e-20 Z" fill="#4588ff" fill-opacity=".44834184"/>
            </clipPath>
            <text clip-path="url(#clip_path)" transform="translate(1132.146 217.3125)" fill="#3d79e3">
              <tspan font-family="Apple Color Emoji" font-size="32" fill="#3d79e3" x="98.1339" y="143" xml:space="preserve">👤</tspan>
              <tspan font-family="Courier New" font-weight="bold" font-size="32" fill="#3d79e3" y="143" xml:space="preserve">User</tspan>
            </text>
          </g>
          <g id="Graphic_14" filter="url(#Shadow)">
            <path d="M 1396.146 886.1042 L 1132.146 754.1042 L 1396.146 622.1042 Z" fill="#4588ff" fill-opacity=".44834184"/>
            <clipPath id="clip_path_2">
              <path d="M 264 264 L 0 132 L 264 0 Z" fill="#4588ff" fill-opacity=".44834184"/>
            </clipPath>
            <text clip-path="url(#clip_path_2)" transform="translate(1132.146 622.1042)" fill="#3d79e3">
              <tspan font-family="Apple Color Emoji" font-size="32" fill="#3d79e3" x="119.0463" y="122" xml:space="preserve">👤</tspan>
              <tspan font-family="Courier New" font-weight="bold" font-size="32" fill="#3d79e3" y="122" xml:space="preserve">User</tspan>
              <tspan font-family="Apple Color Emoji" font-size="32" fill="#3d79e3" x="119.1339" y="164" xml:space="preserve">🤖</tspan>
              <tspan font-family="Courier New" font-weight="bold" font-size="32" fill="#3d79e3" y="164" xml:space="preserve">Bots</tspan>
            </text>
          </g>
          <g id="Graphic_15" filter="url(#Shadow)">
            <path d="M 1396.146 1290.8958 L 1132.146 1158.8958 L 1396.146 1026.8958 Z" fill="#4588ff" fill-opacity=".44834184"/>
            <clipPath id="clip_path_3">
              <path d="M 264 264 L 0 132 L 264 0 Z" fill="#4588ff" fill-opacity=".44834184"/>
            </clipPath>
            <text clip-path="url(#clip_path_3)" transform="translate(1132.146 1026.8958)" fill="#3d79e3">
              <tspan font-family="Apple Color Emoji" font-size="32" fill="#3d79e3" x="127.64787" y="123" xml:space="preserve">🤖</tspan>
              <tspan font-family="Courier New" font-weight="bold" font-size="32" fill="#3d79e3" y="123" xml:space="preserve">MCP</tspan>
              <tspan font-family="Courier New" font-weight="bold" font-size="32" fill="#3d79e3" x="102.32921" y="160" xml:space="preserve"> Server</tspan>
            </text>
          </g>
          <g id="Graphic_16" filter="url(#Shadow)">
            <path d="M 1396.146 1695.6875 L 1132.146 1563.6875 L 1396.146 1431.6875 Z" fill="#4588ff" fill-opacity=".44834184"/>
            <clipPath id="clip_path_4">
              <path d="M 264 264 L 0 132 L 264 0 Z" fill="#4588ff" fill-opacity=".44834184"/>
            </clipPath>
            <text clip-path="url(#clip_path_4)" transform="translate(1132.146 1431.6875)" fill="#3d79e3">
              <tspan font-family="Apple Color Emoji" font-size="32" fill="#3d79e3" x="126.14787" y="124.5" xml:space="preserve">🤖</tspan>
              <tspan font-family="Courier New" font-weight="bold" font-size="32" fill="#3d79e3" y="124.5" xml:space="preserve">MCP </tspan>
              <tspan font-family="Courier New" font-weight="bold" font-size="32" fill="#3d79e3" x="113.43077" y="161.5" xml:space="preserve">Server</tspan>
            </text>
          </g>
        </g>
      </g>
    </g>
  </g>
</svg>
