<?xml version="1.0" encoding="UTF-8"?>
<svg version="1.1" viewBox="-400 -400 2000 2000" xmlns="http://www.w3.org/2000/svg">
 <defs>
   <filter id="Shadow" filterUnits="userSpaceOnUse">
     <feGaussianBlur in="SourceAlpha" result="blur" stdDeviation="1.3030978"/>
     <feOffset in="blur" result="offset" dx="0" dy="2"/>
     <feFlood flood-color="#333" flood-opacity=".2" result="flood"/>
     <feComposite in="flood" in2="offset" operator="in" result="color"/>
     <feMerge>
       <feMergeNode in="color"/>
       <feMergeNode in="SourceGraphic"/>
     </feMerge>
   </filter>
 </defs>

 <!-- Background frame -->

 <!-- All paths converted to strokes only with blue colors -->
 <g filter="url(#Shadow)">
   <!-- Download arrow/package icon -->
   <path d="m434.16 1099.3h-92.625c-3.2344 0-6.375 1.6875-8.1562 4.3125-1.7812 2.7656-2.1562 6.1406-0.84375 9.1406 15.609 36.469 31.688 64.688 47.859 83.766 1.7812 2.1562 4.5469 3.4688 7.4531 3.4688 2.8594 0 5.5312-1.3125 7.4531-3.4688 16.078-19.078 32.297-47.297 47.859-83.766 1.3125-3 0.9375-6.4688-0.84375-9.1406-1.9219-2.7656-4.9219-4.3125-8.1562-4.3125zm-46.312 75.234c-10.453-14.391-21-33.141-31.453-55.781h62.766c-10.453 22.688-20.859 41.391-31.312 55.781z"
         fill="none" stroke="#4588ff" stroke-width="4"/>

   <!-- Version number circle -->
   <path d="m388.22 860.39c44.531 0 79.547-55.312 79.547-125.86 0-70.547-34.922-125.86-79.547-125.86-44.531 0-79.453 55.312-79.453 125.86-0.14062 70.547 34.781 125.86 79.453 125.86zm0-232.31c32.531 0 60.141 48.703 60.141 106.45 0 57.703-27.469 106.45-60.141 106.45-32.531 0-60.141-48.703-60.141-106.45s27.469-106.45 60.141-106.45z"
         fill="none" stroke="#3d78e2" stroke-width="5"/>

   <!-- Main document/package outline -->
   <path d="m1137 197.16-194.39-194.39c-1.8281-1.6875-4.2188-2.7656-6.8438-2.7656h-471.14c-26.859 0-48.703 21.844-48.703 48.703v336.61c-7.3125-6.2344-14.766-12.234-22.453-17.859-3.375-2.5312-8.0625-2.5312-11.391 0-110.3 80.297-179.16 229.08-180.94 389.29-17.906 14.859-154.69 134.95-139.92 289.31 0.375 3.9375 3.1406 7.3125 6.9375 8.3906 0.84375 0.23438 1.7812 0.375 2.7656 0.375 3 0 5.7656-1.3125 7.6875-3.7031 0.70312-0.9375 74.625-94.781 145.78-125.53 7.9219 26.531 17.766 52.078 29.391 76.078 0.14062 2.625 1.3125 4.9219 3.1406 6.6094 11.859 23.766 25.547 45.844 40.781 66.141 1.7812 2.3906 4.6875 3.8438 7.7812 3.8438h164.63c3 0 5.8594-1.4531 7.7812-3.8438 31.781-42.141 56.625-92.859 73.219-148.22 70.781 31.312 143.63 123.84 144.37 124.78 1.9219 2.3906 4.6875 3.7031 7.6875 3.7031 0.9375 0 1.7812-0.14062 2.7656-0.375 3.8438-1.0781 6.6094-4.4531 6.9375-8.3906 3.375-35.156-1.2188-68.625-10.312-99.375h388.78c26.859 0 48.703-21.844 48.703-48.703l0.09375-693.71c-0.28125-2.6719-1.3594-5.2031-3.1406-6.9844zm-18.141 9.375h-152.16c-16.219 0-29.297-13.219-29.297-29.297l0.046875-152.16zm-731.02 180.84c103.55 78.844 167.53 222 167.53 375.71 0 50.156-6.8438 99.703-19.547 146.16-0.14062 0.14062-0.23438 0.23437-0.23438 0.375-0.14062 0.375-0.14062 0.60937-0.14062 0.9375-7.7812 28.312-17.859 55.312-30 80.766h-235.08c-32.297-67.453-50.062-147-50.062-228.37 0-153.56 63.984-296.72 167.53-375.56zm-308.16 632.16c1.9219-112.22 87.469-204.47 121.69-236.76 1.4531 42.375 7.5469 84.234 17.859 123.94-56.625 23.438-112.69 81.844-139.55 112.83zm385.55 39.328h-154.92c-11.062-15-21.141-31.078-30.234-48h215.29c-9 16.922-19.078 33-30.141 48zm91.078-151.55c10.312-39.469 16.453-80.859 18-123 35.156 33.609 118.22 124.55 120 235.22-26.625-30.609-81.938-88.453-138-112.22zm534.84 19.922h-395.39c-33.703-90.469-104.39-154.78-121.22-169.08-1.2188-139.31-53.297-270.14-139.22-354.94l0.046875-354.52c0-16.219 13.219-29.297 29.297-29.297h453.84c-0.23438 0.84375-0.46875 1.5469-0.46875 2.3906v155.29c0 26.859 21.844 48.703 48.703 48.703h153.71v672c0 16.266-13.219 29.438-29.297 29.438z"
         fill="none" stroke="#3d78e2" stroke-width="5"/>

   <!-- Content lines -->
   <path d="m1024.9 323.86h-494.06c-5.3906 0-9.7031 4.3125-9.7031 9.7031s4.3125 9.7031 9.7031 9.7031h493.92c5.3906 0 9.7031-4.3125 9.7031-9.7031 0.14062-5.25-4.2656-9.7031-9.5625-9.7031z"
         fill="none" stroke="#4588ff" stroke-width="3"/>
   <path d="m1024.9 481.78h-402.98c-5.3906 0-9.7031 4.3125-9.7031 9.7031s4.3125 9.7031 9.7031 9.7031h402.84c5.3906 0 9.7031-4.3125 9.7031-9.7031 0.046875-5.3438-4.2656-9.7031-9.5625-9.7031z"
         fill="none" stroke="#4588ff" stroke-width="3"/>
   <path d="m1024.9 639.71h-321.98c-5.3906 0-9.7031 4.3125-9.7031 9.7031s4.3125 9.7031 9.7031 9.7031h321.84c5.3906 0 9.7031-4.3125 9.7031-9.7031 0.046875-5.3438-4.2656-9.7031-9.5625-9.7031z"
         fill="none" stroke="#4588ff" stroke-width="3"/>
 </g>
</svg>
